<?xml version="1.0" encoding="utf-8"?>
<!-- Generator: Adobe Illustrator 13.0.0, SVG Export Plug-In . SVG Version: 6.00 Build 14948)  -->
<!DOCTYPE svg PUBLIC "-//W3C//DTD SVG 1.1//EN" "http://www.w3.org/Graphics/SVG/1.1/DTD/svg11.dtd">
<svg version="1.1" id="Layer_1" xmlns="http://www.w3.org/2000/svg" xmlns:xlink="http://www.w3.org/1999/xlink" x="0px" y="0px"
	 width="480px" height="378.291px" viewBox="0 0 480 378.291" enable-background="new 0 0 480 378.291" xml:space="preserve">
<g>
	<path fill="#FFFFFF" d="M20.523,97.445c0,0,37.451-33.848,105.138-25.207s90.008,34.565,90.008,34.565l51.856,2.886
		c0,0,25.198-29.527,90.007-30.245c64.811-0.726,95.063,17.282,106.582,31.679c0,0-2.16,105.859-95.055,103.699
		c-92.893-2.16-105.138-90.012-105.138-90.012s-20.886-20.886-46.81-4.32c0,0-4.32,68.417-59.771,84.965
		C101.897,222.031,37.805,188.9,30.607,165.858C23.4,142.812,20.523,97.445,20.523,97.445"/>
	<path d="M467.709,91.281c-17.282-14.042-64.81-18.363-101.535-17.283c-36.726,1.08-75.61,8.642-105.855,27.004h-39.966
		c0,0-17.283-32.404-102.615-35.645C32.405,62.116,7.561,90.2,7.561,90.2L0,105.323c0,0,15.122,15.122,16.203,23.763
		c1.08,8.642,6.481,61.57,36.725,73.451c30.245,11.883,101.535,17.282,130.7-1.079c29.164-18.363,34.565-79.933,50.767-83.172
		c16.203-3.241,23.764,14.042,28.084,28.083c4.321,14.042,20.523,56.168,57.249,65.891c36.726,9.721,95.055,14.042,116.657-12.963
		c21.604-27.004,25.924-65.89,35.646-72.371C481.751,120.445,484.992,105.323,467.709,91.281 M208.471,129.086
		c-4.321,17.283-9.722,78.852-87.493,74.532c-77.772-4.321-92.894-27.005-91.814-100.456c0,0,16.203-29.164,93.974-24.844
		C200.91,82.64,212.792,111.804,208.471,129.086 M392.098,206.857c-61.569,8.643-97.483-4.581-114.496-59.408
		C258.158,84.8,354.292,82.64,394.259,85.88c39.965,3.241,56.168,27.004,56.168,27.004S453.667,198.217,392.098,206.857"/>
	<path d="M315.407,28.631c0,0,14.041-23.764,49.688-23.764c35.645,0,57.248,21.604,58.328,27.004
		C423.423,31.872,371.575,9.189,315.407,28.631"/>
	<path d="M173.905,18.91c0,0-25.924-22.683-62.649-18.363S65.89,24.311,65.89,24.311S90.733-0.533,173.905,18.91"/>
	<path d="M102.256,98.479c0,0-3.957,11.527-0.363,19.806c3.347,7.683,16.384,14.042,26.65,9.721
		c10.257-4.32,15.123-16.747,12.418-23.228C140.961,104.778,121.699,92.534,102.256,98.479"/>
	<path d="M140.961,104.783c-17.941-10.059-42.169-7.034-48.877-3.51c-14.852,7.831-19.717,19.979-6.755,26.738l-17.283-6.48
		c0,0,11.785-27.81,47.527-25.933c35.919,1.89,48.881,24.308,47.536,27.012c-1.355,2.697-15.397,5.937-26.198,5.937
		C134.125,128.804,174.885,123.803,140.961,104.783"/>
	<path d="M337.279,105.593c0,0-3.779,19.443,8.643,25.113c12.43,5.676,25.333,3.929,30.514-9.991
		c4.32-11.612,0.278-16.747,0.278-16.747l-14.32-2.962l-11.603,0.802L337.279,105.593z"/>
	<path d="M391.288,128.546l15.123-9.722c0,0-22.414-23.498-55.09-18.362c-32.675,5.13-38.614,17.818-38.614,21.333
		c0,3.511,17.821,13.498,32.944,13.777c1.654,0.363-41.722-8.114-16.743-24.578c22.954-15.122,52.052-6.608,59.765-2.426
		C397.313,113.251,403.979,115.851,391.288,128.546"/>
	<path d="M156.623,374.823c0,0,45.097-8.109,64.273-7.562c19.168,0.531,21.241,4.691,30.511,2.691
		c11.342-2.421,25.383-3.772,44.287,1.359c18.886,5.122,17.013,5.4,17.013,5.4S220.083,381.303,156.623,374.823"/>
	<path d="M181.467,239.263c0,0-10.802,19.982-5.401,32.944c5.401,12.961,18.907,20.522,41.046,15.122
		c5.477-1.333,25.313,11.713,48.076-0.54c7.014-3.78,16.734,12.422,37.258-2.16c20.522-14.582-1.62-43.747-1.62-43.747
		s21.519,37.941-8.634,44.286c-10.27,2.161-9.459-15.121-30.243-2.699c-20.803,12.422-34.373,3.155-39.706-0.541
		c-7.021-4.86-13.633-6.649-24.574,0.812C191.732,286.79,166.344,279.499,181.467,239.263"/>
</g>
</svg>
