<?xml version="1.0" encoding="utf-8"?>
<!-- Generator: Adobe Illustrator 13.0.0, SVG Export Plug-In . SVG Version: 6.00 Build 14948)  -->
<!DOCTYPE svg PUBLIC "-//W3C//DTD SVG 1.1//EN" "http://www.w3.org/Graphics/SVG/1.1/DTD/svg11.dtd">
<svg version="1.1" id="Layer_1" xmlns="http://www.w3.org/2000/svg" xmlns:xlink="http://www.w3.org/1999/xlink" x="0px" y="0px"
	 width="500px" height="500px" viewBox="0 0 500 500" enable-background="new 0 0 500 500" xml:space="preserve">
<g>
	<defs>
		<rect id="SVGID_1_" width="500" height="500"/>
	</defs>
	<clipPath id="SVGID_2_">
		<use xlink:href="#SVGID_1_"  overflow="visible"/>
	</clipPath>
</g>
<g>
	<g>
		<path d="M282.393,295.941c81.246-47.235,78.18-131.209-32.31-205.941c0,0,58.173,99.958-45.375,134.559
			c-90.766,30.33-94.419,142.138-34.719,167.955c59.703,25.813,107.271,15.417,107.271,15.417S196.877,345.659,282.393,295.941z
			 M226.999,283.753c-8.805-6.439-8.734-19.897,1.416-34.343c9.006-12.816,23.722-23.233,33.818-18.283
			c16.461,8.068,12.761,27.972,2.114,39.461c-8.284,8.942-20.121,15.537-29.281,15.539
			C231.998,286.127,229.234,285.389,226.999,283.753z M342.102,236.073c0,0,11.961,29.644-42.157,68.627l-3.234,2.401
			c-54.117,38.981-33.709,80.182-10.219,89.72c23.488,9.539,54.832,4.171,75.428-48.69
			C388.158,280.781,342.102,236.073,342.102,236.073z M343.079,343.228c-3.568,11.851-11.83,19.822-20.549,19.824
			c-1.162,0-2.33-0.141-3.498-0.436c-11.309-2.829-14.669-20.508-10.718-32.304c4.018-11.998,13.038-23.219,23.055-21.086
			C345.396,312.215,346.729,331.112,343.079,343.228z M203.872,202.368c30.722-11.905,71.555-47.82,33.831-104.618
			c0,0,9.598,32.787-39.977,49.624c-49.575,16.839-45.655,82.088-39.743,93.354C157.983,240.728,173.151,214.273,203.872,202.368z
			 M189.896,164.959c12.396-10.5,19.469-10.713,27.066-5.283c9.971,7.126,2.566,17.915-5.85,25.894
			c-5.587,5.298-12.087,7.348-17.517,7.348c-3.547,0-6.637-0.875-8.716-2.289C177.159,185.374,182.08,171.58,189.896,164.959z"/>
	</g>
</g>
</svg>
